mtllib dump.mtl
o mesh000
usemtl mtl000
# xform0 1 0 0 0
# xform1 0 1 0 1
# xform2 0 0 1 0
v -0.500000 0.000000 1.500000
v -0.500000 2.000000 1.500000
v 0.000000 0.000000 1.500000
v 0.000000 2.000000 1.500000
v 0.500000 0.000000 1.500000
v 0.500000 2.000000 1.500000
v 0.500000 0.000000 1.500000
v 0.500000 2.000000 1.500000
v 0.500000 0.000000 -0.000000
v 0.500000 2.000000 -0.000000
v 0.500000 0.000000 -1.500000
v 0.500000 2.000000 -1.500000
v 0.500000 0.000000 -1.500000
v 0.500000 2.000000 -1.500000
v -0.000000 0.000000 -1.500000
v -0.000000 2.000000 -1.500000
v -0.500000 0.000000 -1.500000
v -0.500000 2.000000 -1.500000
v -0.500000 0.000000 -1.500000
v -0.500000 2.000000 -1.500000
v -0.500000 0.000000 0.000000
v -0.500000 2.000000 0.000000
v -0.500000 0.000000 1.500000
v -0.500000 2.000000 1.500000
v -0.500000 0.000000 -1.500000
v -0.500000 0.000000 1.500000
v 0.000000 0.000000 -1.500000
v 0.000000 0.000000 1.500000
v 0.500000 0.000000 -1.500000
v 0.500000 0.000000 1.500000
v -0.500000 2.000000 1.500000
v -0.500000 2.000000 -1.500000
v 0.000000 2.000000 1.500000
v 0.000000 2.000000 -1.500000
v 0.500000 2.000000 1.500000
v 0.500000 2.000000 -1.500000
vn 0.000000 0.000000 1.500000
vn 0.000000 0.000000 1.500000
vn 0.000000 0.000000 1.500000
vn 0.000000 0.000000 1.500000
vn 0.000000 0.000000 1.500000
vn 0.000000 0.000000 1.500000
vn 1.500000 0.000000 -0.000000
vn 1.500000 0.000000 -0.000000
vn 1.500000 0.000000 -0.000000
vn 1.500000 0.000000 -0.000000
vn 1.500000 0.000000 -0.000000
vn 1.500000 0.000000 -0.000000
vn -0.000000 0.000000 -1.500000
vn -0.000000 0.000000 -1.500000
vn -0.000000 0.000000 -1.500000
vn -0.000000 0.000000 -1.500000
vn -0.000000 0.000000 -1.500000
vn -0.000000 0.000000 -1.500000
vn -1.500000 0.000000 0.000000
vn -1.500000 0.000000 0.000000
vn -1.500000 0.000000 0.000000
vn -1.500000 0.000000 0.000000
vn -1.500000 0.000000 0.000000
vn -1.500000 0.000000 0.000000
vn 0.000000 -1.500000 -0.000000
vn 0.000000 -1.500000 -0.000000
vn 0.000000 -1.500000 -0.000000
vn 0.000000 -1.500000 -0.000000
vn 0.000000 -1.500000 -0.000000
vn 0.000000 -1.500000 -0.000000
vn 0.000000 1.500000 -0.000000
vn 0.000000 1.500000 -0.000000
vn 0.000000 1.500000 -0.000000
vn 0.000000 1.500000 -0.000000
vn 0.000000 1.500000 -0.000000
vn 0.000000 1.500000 -0.000000
vt 0.000000 0.000000
vt 0.000000 1.000000
vt 0.500000 0.000000
vt 0.500000 1.000000
vt 1.000000 0.000000
vt 1.000000 1.000000
vt 0.000000 0.000000
vt 0.000000 1.000000
vt 0.500000 0.000000
vt 0.500000 1.000000
vt 1.000000 0.000000
vt 1.000000 1.000000
vt 0.000000 0.000000
vt 0.000000 1.000000
vt 0.500000 0.000000
vt 0.500000 1.000000
vt 1.000000 0.000000
vt 1.000000 1.000000
vt 0.000000 0.000000
vt 0.000000 1.000000
vt 0.500000 0.000000
vt 0.500000 1.000000
vt 1.000000 0.000000
vt 1.000000 1.000000
vt 0.000000 0.000000
vt 0.000000 1.000000
vt 0.500000 0.000000
vt 0.500000 1.000000
vt 1.000000 0.000000
vt 1.000000 1.000000
vt 0.000000 0.000000
vt 0.000000 1.000000
vt 0.500000 0.000000
vt 0.500000 1.000000
vt 1.000000 0.000000
vt 1.000000 1.000000
f 1/1/1 4/4/4 2/2/2
f 1/1/1 3/3/3 4/4/4
f 3/3/3 6/6/6 4/4/4
f 3/3/3 5/5/5 6/6/6
f 7/7/7 10/10/10 8/8/8
f 7/7/7 9/9/9 10/10/10
f 9/9/9 12/12/12 10/10/10
f 9/9/9 11/11/11 12/12/12
f 13/13/13 16/16/16 14/14/14
f 13/13/13 15/15/15 16/16/16
f 15/15/15 18/18/18 16/16/16
f 15/15/15 17/17/17 18/18/18
f 19/19/19 22/22/22 20/20/20
f 19/19/19 21/21/21 22/22/22
f 21/21/21 24/24/24 22/22/22
f 21/21/21 23/23/23 24/24/24
f 25/25/25 28/28/28 26/26/26
f 25/25/25 27/27/27 28/28/28
f 27/27/27 30/30/30 28/28/28
f 27/27/27 29/29/29 30/30/30
f 31/31/31 34/34/34 32/32/32
f 31/31/31 33/33/33 34/34/34
f 33/33/33 36/36/36 34/34/34
f 33/33/33 35/35/35 36/36/36
